<svg xmlns="http://www.w3.org/2000/svg" width="99" height="20" viewBox="0, 0, 99, 20"><path d="M18.545 5.867L14.23 18.882h-1.885L9.373 9.166 6.4 18.882H4.514L.2 5.902h1.994l3.3 10.044L8.5 5.903h1.813l3.01 10.043 3.3-10.043h1.92v-.036zM57.52 10.4v8.482h-1.886v-8.447c0-1.233-.363-2.9-3.48-2.9-1.342 0-2.538.253-3.41.507v10.84H46.86V6.918c.617-.326 2.792-1.27 5.51-1.27 3.3 0 5.15 1.742 5.15 4.75zm14.5 1.957c0 5.547-3.334 6.707-6.126 6.707-2.792 0-6.09-1.16-6.09-6.707S63.1 5.65 65.893 5.65s6.127 1.16 6.127 6.707zm-1.848 0c0-3.48-1.27-5.004-4.242-5.004-2.936 0-4.205 1.523-4.205 5.004 0 3.48 1.27 5.003 4.205 5.003 2.937 0 4.242-1.523 4.242-5.003zM25.362 5.65c-5.91 0-5.693 5.51-5.693 6.888 0 5.402 3.226 6.526 5.945 6.526 1.85 0 3.37-.327 4.64-.907v-1.92c-1.087.65-2.537.978-4.46.978-2.682 0-4.277-1.088-4.277-4.677 0-3.843 1.305-5.112 3.843-5.112 3.59 0 3.808 3.77 3.808 4.387H23.62c0 .217-.036.47-.036.725 0 .326 0 .652.037.942h7.397s.036-.398.036-.906c.036-.507.218-6.925-5.692-6.925zm67.76 0c-5.91 0-5.692 5.51-5.692 6.888 0 5.402 3.226 6.526 5.945 6.526 1.85 0 3.372-.327 4.64-.907v-1.92c-1.087.65-2.537.978-4.458.978-2.683 0-4.278-1.088-4.278-4.677 0-3.843 1.304-5.112 3.842-5.112 3.59 0 3.806 3.77 3.806 4.387H91.38c0 .217-.035.47-.035.725 0 .326.036.652.036.942h7.397s.037-.398.037-.906c.036-.507.217-6.925-5.692-6.925zm-54.71 0c-.434 0-.906.036-1.34.108v1.777c.434-.073.87-.11 1.34-.11 2.865 0 4.098 1.415 4.098 4.823 0 4.64-2.212 5.148-3.843 5.148-2.285 0-3.445-.76-3.445-2.284V.936h-1.885v14.067c0 .98.363 4.097 5.293 4.097 2.14 0 5.73-.87 5.73-6.888 0-5.44-3.228-6.563-5.947-6.563zM83.297.9v14.176c0 1.522-1.16 2.284-3.444 2.284-1.63 0-3.843-.508-3.843-5.148 0-3.372 1.232-4.822 4.096-4.822.435 0 .906.036 1.34.108V5.722c-.434-.073-.87-.11-1.34-.11-2.72 0-5.946 1.16-5.946 6.563 0 5.982 3.59 6.89 5.728 6.89 4.93 0 5.294-3.155 5.294-4.098V.9h-1.886z" fill="#FFF"/></svg>